<svg xmlns="http://www.w3.org/2000/svg" width="445" height="445" viewBox="0 0 445.4 445.4">
        <style>
                .man-top-left-body, .man-top-left-head,
                .man-middle-body, .man-middle-head,
                .man-top-right-body, .man-top-right-head{
                fill: #aaa;
                }
                .man-bottom-left-body, .man-bottom-left-head,
                .man-bottom-right-body, .man-bottom-right-head {
                fill: #ddd;
                }
                .screen-play{
                fill: #ff9999;
                }
                .screen{
                fill: #ffacac;
                }
        </style>
        <path d="M83.2 388.6l0.1-0.3c2.3-5 6.5-8.8 12.5-11.3l19.1-8.8 1-0.8c-0.7-0.8-1.4-1.7-2.1-2.6 -8.6-11.2-13.3-26.1-13.7-43l-2.6-1.2 -9.8-8.3 -15.8 15.7h0l-1.8 0h0l-15.8-15.7 -9.8 8.3 -20.4 9.4c-3 1.2-6 3.1-7.5 6.4 0 0-22.2 52.9-10.2 52.9h76.7C83.1 388.9 83.2 388.7 83.2 388.6z" class = "man-top-left-body"/>
        <path d="M34 264.3c0.4 32.7 18.6 52.1 36.9 52.1 15.6 0 36.5-19.5 36.9-52.1 0.2-22.7-10.6-36.2-36.9-36.2C44.6 228.1 33.8 241.7 34 264.3z" class = "man-top-left-head"/>
        <path d="M197.7 377c6.2 2.6 10.6 6.6 12.7 11.7 0 0.1 0.1 0.3 0.3 0.6h24c0.2-0.4 0.2-0.6 0.3-0.6l0.1-0.3c2.3-5 6.5-8.8 12.5-11.3l19.1-8.8 1-0.8c-0.7-0.8-1.4-1.7-2.1-2.6 -8.6-11.2-13.3-26.1-13.7-43l-2.6-1.2 -9.8-8.3 -15.8 15.7h0l-1.8 0h0l-15.8-15.7 -9.8 8.3 -2.6 1.2c-0.4 16.5-5.7 31.8-14.9 43.2 -0.5 0.6-1.1 1.3-1.6 1.9l1.6 1.4L197.7 377z" class = "man-middle-body"/>
        <path d="M222.7 316.5c15.6 0 36.5-19.5 36.9-52.1 0.2-22.7-10.6-36.2-36.9-36.2 -26.3 0-37.1 13.6-36.9 36.2C186.2 297 204.4 316.5 222.7 316.5z" class = "man-middle-head"/>
        <path d="M428.9 336.4c-1.3-3.1-4.5-5.2-7.5-6.4l-20.4-9.4 -9.8-8.3 -15.8 15.7h0l-1.8 0h0l-15.8-15.7 -9.8 8.3 -2.6 1.2c-0.4 16.5-5.7 31.8-14.9 43.2 -0.5 0.6-1.1 1.3-1.6 1.9l1.6 1.4 19.1 8.8c6.2 2.6 10.6 6.6 12.7 11.7 0 0.1 0.1 0.3 0.3 0.6h76.7C451.2 389.3 428.9 336.4 428.9 336.4z" class = "man-top-right-body"/>
        <path d="M337.6 264.3c0.4 32.7 18.6 52.1 36.9 52.1 15.6 0 36.5-19.5 36.9-52.1 0.2-22.7-10.6-36.2-36.9-36.2C348.2 228.1 337.4 241.7 337.6 264.3z" class = "man-top-right-head"/>
        <path d="M193.8 386.1l-20.4-9.4 -9.8-8.3 -15.8 15.7h0 -1.8 0l-15.8-15.7 -9.8 8.3 -20.4 9.4c-3 1.2-6 3.1-7.5 6.4 0 0-22.2 52.9-10.2 52.9h129.3c12.1 0-10.2-52.9-10.2-52.9C200 389.3 196.8 387.3 193.8 386.1z" class = "man-bottom-left-body"/>
        <path d="M146.8 284.2c-26.3 0-37.1 13.6-36.9 36.2 0.4 32.7 18.6 52.2 36.9 52.2 15.6 0 36.5-19.5 36.9-52.1C183.9 297.8 173.1 284.2 146.8 284.2z" class = "man-bottom-left-head"/>
        <path d="M345.5 386.1l-20.4-9.4 -9.8-8.3 -15.8 15.7h0 -1.8 0l-15.8-15.7 -9.8 8.3 -20.4 9.4c-3 1.2-6 3.1-7.5 6.4 0 0-22.2 52.9-10.2 52.9h129.3c12.1 0-10.2-52.9-10.2-52.9C351.7 389.3 348.6 387.3 345.5 386.1z" class = "man-bottom-right-body"/>
        <path d="M298.6 372.6c15.6 0 36.5-19.5 36.9-52.1 0.2-22.7-10.6-36.2-36.9-36.2 -26.3 0-37.1 13.6-36.9 36.2C262.1 353.1 280.3 372.6 298.6 372.6z" class = "man-bottom-right-head"/>
        <path d="M209.9 140.7c0.5 0.3 1.1 0.4 1.7 0.4 0.8 0 1.6-0.3 2.3-0.8l38.9-29.8c0.9-0.7 1.5-1.8 1.5-3 0-1.2-0.5-2.3-1.5-3L213.9 74.8c-1.1-0.9-2.7-1-4-0.4 -1.3 0.6-2.1 2-2.1 3.4v59.5C207.8 138.8 208.6 140.1 209.9 140.7z" class = "screen-play"/>
        <path d="M23.2 215.1h399c2.9 0 5.3-2.4 5.3-5.3V5.3c0-2.9-2.4-5.3-5.3-5.3H23.2c-2.9 0-5.3 2.4-5.3 5.3v204.6C17.9 212.8 20.3 215.1 23.2 215.1zM222.7 46.3c33.9 0 61.3 27.4 61.3 61.3 0 33.9-27.4 61.3-61.3 61.3 -33.9 0-61.3-27.4-61.3-61.3C161.4 73.7 188.8 46.3 222.7 46.3z" class = "screen"/>
</svg>
